<?xml version="1.0" encoding="UTF-8"?>
<svg xmlns="http://www.w3.org/2000/svg" width="400" height="400" viewBox="0 0 400 400" font-family="sans-serif">
<title>L1 (Manhattan) Delaunay graph</title>
<rect x="0" y="0" width="400" height="400" fill="#fff"/>
<line x1="17" y1="230" x2="21" y2="274" stroke="#1565c0" stroke-width="1"/>
<line x1="17" y1="230" x2="46" y2="282" stroke="#1565c0" stroke-width="1"/>
<line x1="17" y1="230" x2="25" y2="168" stroke="#1565c0" stroke-width="1"/>
<line x1="17" y1="230" x2="65" y2="193" stroke="#1565c0" stroke-width="1"/>
<line x1="17" y1="230" x2="104" y2="246" stroke="#1565c0" stroke-width="1"/>
<line x1="21" y1="274" x2="46" y2="282" stroke="#1565c0" stroke-width="1"/>
<line x1="46" y1="282" x2="104" y2="246" stroke="#1565c0" stroke-width="1"/>
<line x1="46" y1="282" x2="149" y2="302" stroke="#1565c0" stroke-width="1"/>
<line x1="46" y1="282" x2="148" y2="307" stroke="#1565c0" stroke-width="1"/>
<line x1="25" y1="168" x2="66" y2="170" stroke="#1565c0" stroke-width="1"/>
<line x1="25" y1="168" x2="65" y2="193" stroke="#1565c0" stroke-width="1"/>
<line x1="25" y1="168" x2="87" y2="71" stroke="#1565c0" stroke-width="1"/>
<line x1="25" y1="168" x2="112" y2="123" stroke="#1565c0" stroke-width="1"/>
<line x1="66" y1="170" x2="65" y2="193" stroke="#1565c0" stroke-width="1"/>
<line x1="66" y1="170" x2="79" y2="202" stroke="#1565c0" stroke-width="1"/>
<line x1="66" y1="170" x2="112" y2="123" stroke="#1565c0" stroke-width="1"/>
<line x1="66" y1="170" x2="115" y2="146" stroke="#1565c0" stroke-width="1"/>
<line x1="66" y1="170" x2="111" y2="203" stroke="#1565c0" stroke-width="1"/>
<line x1="65" y1="193" x2="79" y2="202" stroke="#1565c0" stroke-width="1"/>
<line x1="65" y1="193" x2="104" y2="246" stroke="#1565c0" stroke-width="1"/>
<line x1="79" y1="202" x2="111" y2="203" stroke="#1565c0" stroke-width="1"/>
<line x1="79" y1="202" x2="104" y2="246" stroke="#1565c0" stroke-width="1"/>
<line x1="83" y1="37" x2="113" y2="73" stroke="#1565c0" stroke-width="1"/>
<line x1="83" y1="37" x2="87" y2="71" stroke="#1565c0" stroke-width="1"/>
<line x1="83" y1="37" x2="159" y2="47" stroke="#1565c0" stroke-width="1"/>
<line x1="87" y1="71" x2="112" y2="123" stroke="#1565c0" stroke-width="1"/>
<line x1="87" y1="71" x2="113" y2="73" stroke="#1565c0" stroke-width="1"/>
<line x1="113" y1="73" x2="112" y2="123" stroke="#1565c0" stroke-width="1"/>
<line x1="113" y1="73" x2="151" y2="91" stroke="#1565c0" stroke-width="1"/>
<line x1="113" y1="73" x2="159" y2="47" stroke="#1565c0" stroke-width="1"/>
<line x1="112" y1="123" x2="115" y2="146" stroke="#1565c0" stroke-width="1"/>
<line x1="112" y1="123" x2="177" y2="124" stroke="#1565c0" stroke-width="1"/>
<line x1="112" y1="123" x2="163" y2="108" stroke="#1565c0" stroke-width="1"/>
<line x1="112" y1="123" x2="151" y2="91" stroke="#1565c0" stroke-width="1"/>
<line x1="115" y1="146" x2="140" y2="179" stroke="#1565c0" stroke-width="1"/>
<line x1="115" y1="146" x2="111" y2="203" stroke="#1565c0" stroke-width="1"/>
<line x1="115" y1="146" x2="157" y2="172" stroke="#1565c0" stroke-width="1"/>
<line x1="115" y1="146" x2="177" y2="124" stroke="#1565c0" stroke-width="1"/>
<line x1="111" y1="203" x2="104" y2="246" stroke="#1565c0" stroke-width="1"/>
<line x1="111" y1="203" x2="140" y2="179" stroke="#1565c0" stroke-width="1"/>
<line x1="111" y1="203" x2="146" y2="244" stroke="#1565c0" stroke-width="1"/>
<line x1="111" y1="203" x2="154" y2="215" stroke="#1565c0" stroke-width="1"/>
<line x1="140" y1="179" x2="154" y2="215" stroke="#1565c0" stroke-width="1"/>
<line x1="140" y1="179" x2="157" y2="172" stroke="#1565c0" stroke-width="1"/>
<line x1="104" y1="246" x2="146" y2="244" stroke="#1565c0" stroke-width="1"/>
<line x1="104" y1="246" x2="146" y2="257" stroke="#1565c0" stroke-width="1"/>
<line x1="104" y1="246" x2="149" y2="302" stroke="#1565c0" stroke-width="1"/>
<line x1="146" y1="244" x2="190" y2="230" stroke="#1565c0" stroke-width="1"/>
<line x1="146" y1="244" x2="165" y2="220" stroke="#1565c0" stroke-width="1"/>
<line x1="146" y1="244" x2="154" y2="215" stroke="#1565c0" stroke-width="1"/>
<line x1="146" y1="244" x2="190" y2="265" stroke="#1565c0" stroke-width="1"/>
<line x1="146" y1="244" x2="146" y2="257" stroke="#1565c0" stroke-width="1"/>
<line x1="146" y1="257" x2="149" y2="302" stroke="#1565c0" stroke-width="1"/>
<line x1="146" y1="257" x2="190" y2="265" stroke="#1565c0" stroke-width="1"/>
<line x1="154" y1="215" x2="157" y2="172" stroke="#1565c0" stroke-width="1"/>
<line x1="154" y1="215" x2="165" y2="220" stroke="#1565c0" stroke-width="1"/>
<line x1="165" y1="220" x2="178" y2="172" stroke="#1565c0" stroke-width="1"/>
<line x1="165" y1="220" x2="186" y2="210" stroke="#1565c0" stroke-width="1"/>
<line x1="165" y1="220" x2="190" y2="230" stroke="#1565c0" stroke-width="1"/>
<line x1="165" y1="220" x2="157" y2="172" stroke="#1565c0" stroke-width="1"/>
<line x1="190" y1="230" x2="186" y2="210" stroke="#1565c0" stroke-width="1"/>
<line x1="190" y1="230" x2="190" y2="265" stroke="#1565c0" stroke-width="1"/>
<line x1="190" y1="230" x2="223" y2="218" stroke="#1565c0" stroke-width="1"/>
<line x1="190" y1="230" x2="221" y2="227" stroke="#1565c0" stroke-width="1"/>
<line x1="190" y1="230" x2="204" y2="273" stroke="#1565c0" stroke-width="1"/>
<line x1="149" y1="302" x2="148" y2="307" stroke="#1565c0" stroke-width="1"/>
<line x1="149" y1="302" x2="190" y2="265" stroke="#1565c0" stroke-width="1"/>
<line x1="149" y1="302" x2="209" y2="304" stroke="#1565c0" stroke-width="1"/>
<line x1="148" y1="307" x2="209" y2="304" stroke="#1565c0" stroke-width="1"/>
<line x1="148" y1="307" x2="206" y2="312" stroke="#1565c0" stroke-width="1"/>
<line x1="148" y1="307" x2="236" y2="350" stroke="#1565c0" stroke-width="1"/>
<line x1="190" y1="265" x2="204" y2="273" stroke="#1565c0" stroke-width="1"/>
<line x1="190" y1="265" x2="209" y2="304" stroke="#1565c0" stroke-width="1"/>
<line x1="186" y1="210" x2="192" y2="185" stroke="#1565c0" stroke-width="1"/>
<line x1="186" y1="210" x2="178" y2="172" stroke="#1565c0" stroke-width="1"/>
<line x1="186" y1="210" x2="203" y2="187" stroke="#1565c0" stroke-width="1"/>
<line x1="186" y1="210" x2="223" y2="218" stroke="#1565c0" stroke-width="1"/>
<line x1="157" y1="172" x2="178" y2="172" stroke="#1565c0" stroke-width="1"/>
<line x1="157" y1="172" x2="177" y2="124" stroke="#1565c0" stroke-width="1"/>
<line x1="178" y1="172" x2="177" y2="124" stroke="#1565c0" stroke-width="1"/>
<line x1="178" y1="172" x2="192" y2="185" stroke="#1565c0" stroke-width="1"/>
<line x1="178" y1="172" x2="210" y2="139" stroke="#1565c0" stroke-width="1"/>
<line x1="192" y1="185" x2="210" y2="139" stroke="#1565c0" stroke-width="1"/>
<line x1="192" y1="185" x2="203" y2="187" stroke="#1565c0" stroke-width="1"/>
<line x1="177" y1="124" x2="178" y2="102" stroke="#1565c0" stroke-width="1"/>
<line x1="177" y1="124" x2="163" y2="108" stroke="#1565c0" stroke-width="1"/>
<line x1="177" y1="124" x2="210" y2="139" stroke="#1565c0" stroke-width="1"/>
<line x1="163" y1="108" x2="151" y2="91" stroke="#1565c0" stroke-width="1"/>
<line x1="163" y1="108" x2="178" y2="102" stroke="#1565c0" stroke-width="1"/>
<line x1="151" y1="91" x2="159" y2="47" stroke="#1565c0" stroke-width="1"/>
<line x1="151" y1="91" x2="178" y2="102" stroke="#1565c0" stroke-width="1"/>
<line x1="178" y1="102" x2="159" y2="47" stroke="#1565c0" stroke-width="1"/>
<line x1="178" y1="102" x2="216" y2="27" stroke="#1565c0" stroke-width="1"/>
<line x1="178" y1="102" x2="234" y2="103" stroke="#1565c0" stroke-width="1"/>
<line x1="178" y1="102" x2="210" y2="139" stroke="#1565c0" stroke-width="1"/>
<line x1="159" y1="47" x2="216" y2="27" stroke="#1565c0" stroke-width="1"/>
<line x1="216" y1="27" x2="259" y2="94" stroke="#1565c0" stroke-width="1"/>
<line x1="216" y1="27" x2="234" y2="103" stroke="#1565c0" stroke-width="1"/>
<line x1="216" y1="27" x2="338" y2="113" stroke="#1565c0" stroke-width="1"/>
<line x1="234" y1="103" x2="259" y2="153" stroke="#1565c0" stroke-width="1"/>
<line x1="234" y1="103" x2="259" y2="94" stroke="#1565c0" stroke-width="1"/>
<line x1="234" y1="103" x2="210" y2="139" stroke="#1565c0" stroke-width="1"/>
<line x1="234" y1="103" x2="281" y2="127" stroke="#1565c0" stroke-width="1"/>
<line x1="210" y1="139" x2="218" y2="187" stroke="#1565c0" stroke-width="1"/>
<line x1="210" y1="139" x2="203" y2="187" stroke="#1565c0" stroke-width="1"/>
<line x1="210" y1="139" x2="259" y2="153" stroke="#1565c0" stroke-width="1"/>
<line x1="210" y1="139" x2="242" y2="177" stroke="#1565c0" stroke-width="1"/>
<line x1="259" y1="94" x2="281" y2="127" stroke="#1565c0" stroke-width="1"/>
<line x1="259" y1="94" x2="338" y2="113" stroke="#1565c0" stroke-width="1"/>
<line x1="203" y1="187" x2="218" y2="187" stroke="#1565c0" stroke-width="1"/>
<line x1="203" y1="187" x2="223" y2="218" stroke="#1565c0" stroke-width="1"/>
<line x1="218" y1="187" x2="242" y2="177" stroke="#1565c0" stroke-width="1"/>
<line x1="218" y1="187" x2="223" y2="218" stroke="#1565c0" stroke-width="1"/>
<line x1="281" y1="127" x2="268" y2="153" stroke="#1565c0" stroke-width="1"/>
<line x1="281" y1="127" x2="302" y2="159" stroke="#1565c0" stroke-width="1"/>
<line x1="281" y1="127" x2="319" y2="142" stroke="#1565c0" stroke-width="1"/>
<line x1="281" y1="127" x2="338" y2="113" stroke="#1565c0" stroke-width="1"/>
<line x1="281" y1="127" x2="259" y2="153" stroke="#1565c0" stroke-width="1"/>
<line x1="259" y1="153" x2="242" y2="177" stroke="#1565c0" stroke-width="1"/>
<line x1="259" y1="153" x2="268" y2="153" stroke="#1565c0" stroke-width="1"/>
<line x1="242" y1="177" x2="223" y2="218" stroke="#1565c0" stroke-width="1"/>
<line x1="242" y1="177" x2="274" y2="203" stroke="#1565c0" stroke-width="1"/>
<line x1="242" y1="177" x2="268" y2="153" stroke="#1565c0" stroke-width="1"/>
<line x1="268" y1="153" x2="274" y2="203" stroke="#1565c0" stroke-width="1"/>
<line x1="268" y1="153" x2="302" y2="159" stroke="#1565c0" stroke-width="1"/>
<line x1="223" y1="218" x2="221" y2="227" stroke="#1565c0" stroke-width="1"/>
<line x1="223" y1="218" x2="268" y2="223" stroke="#1565c0" stroke-width="1"/>
<line x1="223" y1="218" x2="274" y2="215" stroke="#1565c0" stroke-width="1"/>
<line x1="223" y1="218" x2="274" y2="203" stroke="#1565c0" stroke-width="1"/>
<line x1="221" y1="227" x2="204" y2="273" stroke="#1565c0" stroke-width="1"/>
<line x1="221" y1="227" x2="267" y2="226" stroke="#1565c0" stroke-width="1"/>
<line x1="221" y1="227" x2="268" y2="223" stroke="#1565c0" stroke-width="1"/>
<line x1="338" y1="113" x2="376" y2="195" stroke="#1565c0" stroke-width="1"/>
<line x1="338" y1="113" x2="319" y2="142" stroke="#1565c0" stroke-width="1"/>
<line x1="319" y1="142" x2="315" y2="172" stroke="#1565c0" stroke-width="1"/>
<line x1="319" y1="142" x2="302" y2="159" stroke="#1565c0" stroke-width="1"/>
<line x1="319" y1="142" x2="376" y2="195" stroke="#1565c0" stroke-width="1"/>
<line x1="302" y1="159" x2="315" y2="172" stroke="#1565c0" stroke-width="1"/>
<line x1="302" y1="159" x2="295" y2="202" stroke="#1565c0" stroke-width="1"/>
<line x1="302" y1="159" x2="274" y2="203" stroke="#1565c0" stroke-width="1"/>
<line x1="204" y1="273" x2="209" y2="304" stroke="#1565c0" stroke-width="1"/>
<line x1="204" y1="273" x2="267" y2="226" stroke="#1565c0" stroke-width="1"/>
<line x1="204" y1="273" x2="242" y2="312" stroke="#1565c0" stroke-width="1"/>
<line x1="274" y1="203" x2="274" y2="215" stroke="#1565c0" stroke-width="1"/>
<line x1="274" y1="203" x2="295" y2="202" stroke="#1565c0" stroke-width="1"/>
<line x1="315" y1="172" x2="376" y2="195" stroke="#1565c0" stroke-width="1"/>
<line x1="315" y1="172" x2="295" y2="202" stroke="#1565c0" stroke-width="1"/>
<line x1="274" y1="215" x2="268" y2="223" stroke="#1565c0" stroke-width="1"/>
<line x1="274" y1="215" x2="295" y2="202" stroke="#1565c0" stroke-width="1"/>
<line x1="274" y1="215" x2="303" y2="223" stroke="#1565c0" stroke-width="1"/>
<line x1="268" y1="223" x2="303" y2="223" stroke="#1565c0" stroke-width="1"/>
<line x1="268" y1="223" x2="267" y2="226" stroke="#1565c0" stroke-width="1"/>
<line x1="267" y1="226" x2="242" y2="312" stroke="#1565c0" stroke-width="1"/>
<line x1="267" y1="226" x2="289" y2="337" stroke="#1565c0" stroke-width="1"/>
<line x1="267" y1="226" x2="324" y2="250" stroke="#1565c0" stroke-width="1"/>
<line x1="267" y1="226" x2="303" y2="223" stroke="#1565c0" stroke-width="1"/>
<line x1="295" y1="202" x2="303" y2="223" stroke="#1565c0" stroke-width="1"/>
<line x1="295" y1="202" x2="376" y2="195" stroke="#1565c0" stroke-width="1"/>
<line x1="209" y1="304" x2="206" y2="312" stroke="#1565c0" stroke-width="1"/>
<line x1="209" y1="304" x2="242" y2="312" stroke="#1565c0" stroke-width="1"/>
<line x1="206" y1="312" x2="242" y2="312" stroke="#1565c0" stroke-width="1"/>
<line x1="206" y1="312" x2="236" y2="350" stroke="#1565c0" stroke-width="1"/>
<line x1="303" y1="223" x2="376" y2="195" stroke="#1565c0" stroke-width="1"/>
<line x1="303" y1="223" x2="367" y2="234" stroke="#1565c0" stroke-width="1"/>
<line x1="303" y1="223" x2="324" y2="250" stroke="#1565c0" stroke-width="1"/>
<line x1="242" y1="312" x2="236" y2="350" stroke="#1565c0" stroke-width="1"/>
<line x1="242" y1="312" x2="289" y2="337" stroke="#1565c0" stroke-width="1"/>
<line x1="376" y1="195" x2="367" y2="234" stroke="#1565c0" stroke-width="1"/>
<line x1="324" y1="250" x2="367" y2="234" stroke="#1565c0" stroke-width="1"/>
<line x1="324" y1="250" x2="295" y2="340" stroke="#1565c0" stroke-width="1"/>
<line x1="324" y1="250" x2="289" y2="337" stroke="#1565c0" stroke-width="1"/>
<line x1="236" y1="350" x2="289" y2="337" stroke="#1565c0" stroke-width="1"/>
<line x1="367" y1="234" x2="295" y2="340" stroke="#1565c0" stroke-width="1"/>
<line x1="289" y1="337" x2="295" y2="340" stroke="#1565c0" stroke-width="1"/>
<circle cx="17" cy="230" r="1.5" fill="#000"/>
<circle cx="21" cy="274" r="1.5" fill="#000"/>
<circle cx="46" cy="282" r="1.5" fill="#000"/>
<circle cx="25" cy="168" r="1.5" fill="#000"/>
<circle cx="66" cy="170" r="1.5" fill="#000"/>
<circle cx="65" cy="193" r="1.5" fill="#000"/>
<circle cx="79" cy="202" r="1.5" fill="#000"/>
<circle cx="83" cy="37" r="1.5" fill="#000"/>
<circle cx="87" cy="71" r="1.5" fill="#000"/>
<circle cx="113" cy="73" r="1.5" fill="#000"/>
<circle cx="112" cy="123" r="1.5" fill="#000"/>
<circle cx="115" cy="146" r="1.5" fill="#000"/>
<circle cx="111" cy="203" r="1.5" fill="#000"/>
<circle cx="140" cy="179" r="1.5" fill="#000"/>
<circle cx="104" cy="246" r="1.5" fill="#000"/>
<circle cx="146" cy="244" r="1.5" fill="#000"/>
<circle cx="146" cy="257" r="1.5" fill="#000"/>
<circle cx="154" cy="215" r="1.5" fill="#000"/>
<circle cx="165" cy="220" r="1.5" fill="#000"/>
<circle cx="190" cy="230" r="1.5" fill="#000"/>
<circle cx="149" cy="302" r="1.5" fill="#000"/>
<circle cx="148" cy="307" r="1.5" fill="#000"/>
<circle cx="190" cy="265" r="1.5" fill="#000"/>
<circle cx="186" cy="210" r="1.5" fill="#000"/>
<circle cx="157" cy="172" r="1.5" fill="#000"/>
<circle cx="178" cy="172" r="1.5" fill="#000"/>
<circle cx="192" cy="185" r="1.5" fill="#000"/>
<circle cx="177" cy="124" r="1.5" fill="#000"/>
<circle cx="163" cy="108" r="1.5" fill="#000"/>
<circle cx="151" cy="91" r="1.5" fill="#000"/>
<circle cx="178" cy="102" r="1.5" fill="#000"/>
<circle cx="159" cy="47" r="1.5" fill="#000"/>
<circle cx="216" cy="27" r="1.5" fill="#000"/>
<circle cx="234" cy="103" r="1.5" fill="#000"/>
<circle cx="210" cy="139" r="1.5" fill="#000"/>
<circle cx="259" cy="94" r="1.5" fill="#000"/>
<circle cx="203" cy="187" r="1.5" fill="#000"/>
<circle cx="218" cy="187" r="1.5" fill="#000"/>
<circle cx="281" cy="127" r="1.5" fill="#000"/>
<circle cx="259" cy="153" r="1.5" fill="#000"/>
<circle cx="242" cy="177" r="1.5" fill="#000"/>
<circle cx="268" cy="153" r="1.5" fill="#000"/>
<circle cx="223" cy="218" r="1.5" fill="#000"/>
<circle cx="221" cy="227" r="1.5" fill="#000"/>
<circle cx="338" cy="113" r="1.5" fill="#000"/>
<circle cx="319" cy="142" r="1.5" fill="#000"/>
<circle cx="302" cy="159" r="1.5" fill="#000"/>
<circle cx="204" cy="273" r="1.5" fill="#000"/>
<circle cx="274" cy="203" r="1.5" fill="#000"/>
<circle cx="315" cy="172" r="1.5" fill="#000"/>
<circle cx="274" cy="215" r="1.5" fill="#000"/>
<circle cx="268" cy="223" r="1.5" fill="#000"/>
<circle cx="267" cy="226" r="1.5" fill="#000"/>
<circle cx="295" cy="202" r="1.5" fill="#000"/>
<circle cx="209" cy="304" r="1.5" fill="#000"/>
<circle cx="206" cy="312" r="1.5" fill="#000"/>
<circle cx="303" cy="223" r="1.5" fill="#000"/>
<circle cx="242" cy="312" r="1.5" fill="#000"/>
<circle cx="376" cy="195" r="1.5" fill="#000"/>
<circle cx="324" cy="250" r="1.5" fill="#000"/>
<circle cx="236" cy="350" r="1.5" fill="#000"/>
<circle cx="367" cy="234" r="1.5" fill="#000"/>
<circle cx="289" cy="337" r="1.5" fill="#000"/>
<circle cx="295" cy="340" r="1.5" fill="#000"/>
</svg>
